<?xml version="1.0" encoding="UTF-8"?>
<svg id="_レイヤー_2" data-name="レイヤー 2" xmlns="http://www.w3.org/2000/svg" viewBox="0 0 55 70.4">
  <defs>
    <style>
      .cls-1 {
        fill: #fff;
        stroke-width: 0px;
      }
    </style>
  </defs>
  <g id="icon">
    <g>
      <path class="cls-1" d="M54.94,19.15c-.03-.14-.08-.26-.12-.39-.02-.07-.04-.15-.07-.22-.06-.14-.14-.27-.21-.4-.03-.06-.06-.12-.09-.17-.12-.18-.26-.35-.41-.5L37.54.97c-.15-.15-.32-.29-.5-.41-.05-.03-.1-.05-.15-.08-.13-.08-.27-.16-.41-.22-.07-.03-.14-.04-.21-.07-.13-.05-.26-.09-.41-.12-.21-.04-.43-.07-.65-.07H3.3C1.48,0,0,1.48,0,3.3s1.48,3.3,3.3,3.3h28.6v13.2c0,1.82,1.48,3.3,3.3,3.3h13.2v33c0,1.82,1.48,3.3,3.3,3.3s3.3-1.48,3.3-3.3V19.8c0-.22-.02-.44-.07-.65ZM38.5,11.27l5.23,5.23h-5.23v-5.23Z"/>
      <path class="cls-1" d="M51.7,63.8H6.6V14.3c0-1.82-1.48-3.3-3.3-3.3s-3.3,1.48-3.3,3.3v52.8c0,1.82,1.48,3.3,3.3,3.3h48.4c1.82,0,3.3-1.48,3.3-3.3s-1.48-3.3-3.3-3.3Z"/>
      <path class="cls-1" d="M15.08,33.01h24.85c1.21,0,2.2-.99,2.2-2.2s-.99-2.2-2.2-2.2H15.08c-1.21,0-2.2.99-2.2,2.2s.99,2.2,2.2,2.2Z"/>
      <path class="cls-1" d="M15.08,44.01h24.85c1.21,0,2.2-.99,2.2-2.2s-.99-2.2-2.2-2.2H15.08c-1.21,0-2.2.99-2.2,2.2s.99,2.2,2.2,2.2Z"/>
      <path class="cls-1" d="M15.08,55.01h16.5c1.21,0,2.2-.99,2.2-2.2s-.99-2.2-2.2-2.2H15.08c-1.21,0-2.2.99-2.2,2.2s.99,2.2,2.2,2.2Z"/>
    </g>
  </g>
</svg>