<?xml version="1.0" encoding="UTF-8"?>
<svg id="_レイヤー_2" data-name="レイヤー 2" xmlns="http://www.w3.org/2000/svg" viewBox="0 0 70.65 75.51">
  <defs>
    <style>
      .cls-1 {
        fill: #fff;
        stroke-width: 0px;
      }
    </style>
  </defs>
  <g id="icon">
    <g>
      <path class="cls-1" d="M55.12,75.51H15.52c-4.85,0-8.8-3.95-8.8-8.8V26.08c0-1.82,1.48-3.3,3.3-3.3s3.3,1.48,3.3,3.3v40.63c0,1.19,1.01,2.2,2.2,2.2h39.6c1.19,0,2.2-1.01,2.2-2.2V26.08c0-1.82,1.48-3.3,3.3-3.3s3.3,1.48,3.3,3.3v40.63c0,4.85-3.95,8.8-8.8,8.8Z"/>
      <path class="cls-1" d="M67.35,11.78h-17.72V3.3c0-1.82-1.48-3.3-3.3-3.3h-22c-1.82,0-3.3,1.48-3.3,3.3v8.48H3.3c-1.82,0-3.3,1.48-3.3,3.3s1.48,3.3,3.3,3.3h64.05c1.82,0,3.3-1.48,3.3-3.3s-1.48-3.3-3.3-3.3ZM27.62,6.6h15.4v5.18h-15.4v-5.18Z"/>
      <path class="cls-1" d="M22.67,59.02c-1.21,0-2.2-.99-2.2-2.2v-24.58c0-1.21.99-2.2,2.2-2.2s2.2.99,2.2,2.2v24.58c0,1.21-.99,2.2-2.2,2.2Z"/>
      <path class="cls-1" d="M35.32,59.02c-1.21,0-2.2-.99-2.2-2.2v-24.58c0-1.21.99-2.2,2.2-2.2s2.2.99,2.2,2.2v24.58c0,1.21-.99,2.2-2.2,2.2Z"/>
      <path class="cls-1" d="M47.97,59.02c-1.21,0-2.2-.99-2.2-2.2v-24.58c0-1.21.99-2.2,2.2-2.2s2.2.99,2.2,2.2v24.58c0,1.21-.99,2.2-2.2,2.2Z"/>
    </g>
  </g>
</svg>