<?xml version="1.0" encoding="UTF-8"?>
<svg id="_レイヤー_2" data-name="レイヤー 2" xmlns="http://www.w3.org/2000/svg" viewBox="0 0 57.2 71.29">
  <defs>
    <style>
      .cls-1 {
        fill: #fff;
        stroke-width: 0px;
      }
    </style>
  </defs>
  <g id="icon">
    <g>
      <path class="cls-1" d="M53.9,14.09h-9.35c-1.82,0-3.3,1.48-3.3,3.3s1.48,3.3,3.3,3.3h6.05v44H6.6V20.69h6.05c1.82,0,3.3-1.48,3.3-3.3s-1.48-3.3-3.3-3.3H3.3c-1.82,0-3.3,1.48-3.3,3.3v50.6c0,1.82,1.48,3.3,3.3,3.3h50.6c1.82,0,3.3-1.48,3.3-3.3V17.39c0-1.82-1.48-3.3-3.3-3.3Z"/>
      <path class="cls-1" d="M16.13,33.16l10.13,10.13c.15.15.32.29.5.41.08.05.17.09.25.13.11.06.21.12.32.17.11.05.22.07.33.1.09.03.18.06.28.08.21.04.43.07.65.07s.43-.02.65-.07c.1-.02.19-.06.28-.08.11-.03.23-.06.33-.1.11-.04.2-.11.3-.16.09-.05.18-.09.26-.14.15-.1.29-.22.42-.34.03-.02.06-.04.08-.07l10.13-10.13c1.29-1.29,1.29-3.38,0-4.67-1.29-1.29-3.38-1.29-4.67,0l-4.5,4.5V3.3c0-1.82-1.48-3.3-3.3-3.3s-3.3,1.48-3.3,3.3v29.69l-4.5-4.5c-1.29-1.29-3.38-1.29-4.67,0-1.29,1.29-1.29,3.38,0,4.67Z"/>
    </g>
  </g>
</svg>